<svg width="132" height="26" viewBox="0 0 132 26" fill="none" xmlns="http://www.w3.org/2000/svg">
<path d="M0.750877 25V1.16H4.91088L13.8389 13.288H11.8549L20.5909 1.16H24.7509V25H20.3669V6.12L22.0629 6.536L13.0069 18.6H12.4949L3.66288 6.536L5.10288 6.12V25H0.750877ZM40.0974 25.384C38.348 25.384 36.716 25.0747 35.2014 24.456C33.6867 23.8373 32.364 22.9733 31.2334 21.864C30.1027 20.7547 29.2174 19.4533 28.5774 17.96C27.9587 16.4453 27.6494 14.8133 27.6494 13.064C27.6494 11.2933 27.9587 9.66133 28.5774 8.168C29.196 6.67467 30.0707 5.37333 31.2014 4.264C32.332 3.15467 33.6547 2.30133 35.1694 1.704C36.684 1.08533 38.3267 0.775999 40.0974 0.775999C41.868 0.775999 43.5107 1.08533 45.0254 1.704C46.54 2.32266 47.8627 3.18667 48.9934 4.296C50.124 5.384 50.9987 6.67467 51.6174 8.168C52.2574 9.66133 52.5774 11.2933 52.5774 13.064C52.5774 14.8133 52.2574 16.4453 51.6174 17.96C50.9774 19.4533 50.092 20.7547 48.9614 21.864C47.8307 22.9733 46.508 23.8373 44.9934 24.456C43.5 25.0747 41.868 25.384 40.0974 25.384ZM40.0974 21.416C41.2707 21.416 42.348 21.2133 43.3294 20.808C44.3107 20.3813 45.164 19.7947 45.8894 19.048C46.636 18.3013 47.2014 17.416 47.5854 16.392C47.9907 15.368 48.1934 14.2587 48.1934 13.064C48.1934 11.8693 47.9907 10.7707 47.5854 9.768C47.2014 8.744 46.636 7.85867 45.8894 7.112C45.164 6.344 44.3107 5.75733 43.3294 5.352C42.348 4.94667 41.2707 4.744 40.0974 4.744C38.9454 4.744 37.8787 4.94667 36.8974 5.352C35.916 5.75733 35.052 6.344 34.3054 7.112C33.58 7.85867 33.0147 8.744 32.6094 9.768C32.204 10.7707 32.0014 11.8693 32.0014 13.064C32.0014 14.2587 32.204 15.368 32.6094 16.392C33.0147 17.416 33.58 18.3013 34.3054 19.048C35.052 19.7947 35.916 20.3813 36.8974 20.808C37.8787 21.2133 38.9454 21.416 40.0974 21.416ZM55.4871 25V1.16H64.3511C65.9725 1.16 67.4018 1.45867 68.6391 2.056C69.8978 2.632 70.8791 3.48533 71.5831 4.616C72.2871 5.72533 72.6391 7.08 72.6391 8.68C72.6391 10.3227 72.2445 11.72 71.4551 12.872C70.6871 14.024 69.6418 14.8773 68.3191 15.432L73.7911 25H68.8631L63.0071 14.536L65.8231 16.2H59.8391V25H55.4871ZM59.8391 12.36H64.4151C65.2045 12.36 65.8871 12.2107 66.4631 11.912C67.0391 11.592 67.4871 11.1547 67.8071 10.6C68.1271 10.0453 68.2871 9.40533 68.2871 8.68C68.2871 7.93333 68.1271 7.29333 67.8071 6.76C67.4871 6.20533 67.0391 5.77867 66.4631 5.48C65.8871 5.16 65.2045 5 64.4151 5H59.8391V12.36ZM75.6834 25V1.16H91.5234V5H80.0354V11.112H90.8834V14.952H80.0354V21.16H91.5234V25H75.6834ZM93.7546 25V1.16H97.1466L110.267 18.824L108.507 19.176V1.16H112.859V25H109.435L96.5066 7.208L98.1066 6.856V25H93.7546ZM120.737 25V5H114.561V1.16H131.201V5H125.121V25H120.737Z" fill="white"/>
</svg>
