<svg width="131" height="26" viewBox="0 0 131 26" fill="none" xmlns="http://www.w3.org/2000/svg">
<path d="M0.250877 25V1.16H4.41088L13.3389 13.288H11.3549L20.0909 1.16H24.2509V25H19.8669V6.12L21.5629 6.536L12.5069 18.6H11.9949L3.16288 6.536L4.60288 6.12V25H0.250877ZM39.5974 25.384C37.848 25.384 36.216 25.0747 34.7014 24.456C33.1867 23.8373 31.864 22.9733 30.7334 21.864C29.6027 20.7547 28.7174 19.4533 28.0774 17.96C27.4587 16.4453 27.1494 14.8133 27.1494 13.064C27.1494 11.2933 27.4587 9.66133 28.0774 8.168C28.696 6.67467 29.5707 5.37333 30.7014 4.264C31.832 3.15467 33.1547 2.30133 34.6694 1.704C36.184 1.08533 37.8267 0.775999 39.5974 0.775999C41.368 0.775999 43.0107 1.08533 44.5254 1.704C46.04 2.32266 47.3627 3.18667 48.4934 4.296C49.624 5.384 50.4987 6.67467 51.1174 8.168C51.7574 9.66133 52.0774 11.2933 52.0774 13.064C52.0774 14.8133 51.7574 16.4453 51.1174 17.96C50.4774 19.4533 49.592 20.7547 48.4614 21.864C47.3307 22.9733 46.008 23.8373 44.4934 24.456C43 25.0747 41.368 25.384 39.5974 25.384ZM39.5974 21.416C40.7707 21.416 41.848 21.2133 42.8294 20.808C43.8107 20.3813 44.664 19.7947 45.3894 19.048C46.136 18.3013 46.7014 17.416 47.0854 16.392C47.4907 15.368 47.6934 14.2587 47.6934 13.064C47.6934 11.8693 47.4907 10.7707 47.0854 9.768C46.7014 8.744 46.136 7.85867 45.3894 7.112C44.664 6.344 43.8107 5.75733 42.8294 5.352C41.848 4.94667 40.7707 4.744 39.5974 4.744C38.4454 4.744 37.3787 4.94667 36.3974 5.352C35.416 5.75733 34.552 6.344 33.8054 7.112C33.08 7.85867 32.5147 8.744 32.1094 9.768C31.704 10.7707 31.5014 11.8693 31.5014 13.064C31.5014 14.2587 31.704 15.368 32.1094 16.392C32.5147 17.416 33.08 18.3013 33.8054 19.048C34.552 19.7947 35.416 20.3813 36.3974 20.808C37.3787 21.2133 38.4454 21.416 39.5974 21.416ZM54.9871 25V1.16H63.8511C65.4725 1.16 66.9018 1.45867 68.1391 2.056C69.3978 2.632 70.3791 3.48533 71.0831 4.616C71.7871 5.72533 72.1391 7.08 72.1391 8.68C72.1391 10.3227 71.7445 11.72 70.9551 12.872C70.1871 14.024 69.1418 14.8773 67.8191 15.432L73.2911 25H68.3631L62.5071 14.536L65.3231 16.2H59.3391V25H54.9871ZM59.3391 12.36H63.9151C64.7045 12.36 65.3871 12.2107 65.9631 11.912C66.5391 11.592 66.9871 11.1547 67.3071 10.6C67.6271 10.0453 67.7871 9.40533 67.7871 8.68C67.7871 7.93333 67.6271 7.29333 67.3071 6.76C66.9871 6.20533 66.5391 5.77867 65.9631 5.48C65.3871 5.16 64.7045 5 63.9151 5H59.3391V12.36ZM75.1834 25V1.16H91.0234V5H79.5354V11.112H90.3834V14.952H79.5354V21.16H91.0234V25H75.1834ZM93.2546 25V1.16H96.6466L109.767 18.824L108.007 19.176V1.16H112.359V25H108.935L96.0066 7.208L97.6066 6.856V25H93.2546ZM120.237 25V5H114.061V1.16H130.701V5H124.621V25H120.237Z" fill="white"/>
</svg>
