<svg width="28" height="26" viewBox="0 0 28 26" fill="none" xmlns="http://www.w3.org/2000/svg">
<circle cx="22" cy="6" r="6" fill="#A15842" fill-opacity="0.5"/>
<path d="M8.66754 23.8333H17.3342C21.6892 23.8333 22.4692 22.0892 22.6967 19.9658L23.5092 11.2992C23.8017 8.65583 23.0434 6.5 18.4175 6.5H7.5842C2.95837 6.5 2.20004 8.65583 2.49254 11.2992L3.30504 19.9658C3.53254 22.0892 4.31254 23.8333 8.66754 23.8333Z" stroke="#292D32" stroke-width="1.5" stroke-miterlimit="10" stroke-linecap="round" stroke-linejoin="round"/>
<path d="M8.66602 6.49999V5.63332C8.66602 3.71582 8.66602 2.16666 12.1327 2.16666H13.866C17.3327 2.16666 17.3327 3.71582 17.3327 5.63332V6.49999" stroke="#292D32" stroke-width="1.5" stroke-miterlimit="10" stroke-linecap="round" stroke-linejoin="round"/>
<path d="M15.1673 14.0833V15.1667C15.1673 15.1775 15.1673 15.1775 15.1673 15.1883C15.1673 16.3692 15.1565 17.3333 13.0007 17.3333C10.8557 17.3333 10.834 16.38 10.834 15.1992V14.0833C10.834 13 10.834 13 11.9173 13H14.084C15.1673 13 15.1673 13 15.1673 14.0833Z" stroke="#292D32" stroke-width="1.5" stroke-miterlimit="10" stroke-linecap="round" stroke-linejoin="round"/>
<path d="M23.4535 11.9167C20.951 13.7367 18.091 14.82 15.166 15.1883" stroke="#292D32" stroke-width="1.5" stroke-miterlimit="10" stroke-linecap="round" stroke-linejoin="round"/>
<path d="M2.83789 12.2092C5.27539 13.8775 8.02706 14.885 10.8329 15.1992" stroke="#292D32" stroke-width="1.5" stroke-miterlimit="10" stroke-linecap="round" stroke-linejoin="round"/>
</svg>
