<svg width="20" height="20" viewBox="0 0 20 20" fill="none" xmlns="http://www.w3.org/2000/svg">
<path d="M19.5599 8.74L18.2099 7.16C17.9599 6.86 17.7499 6.3 17.7499 5.9V4.2C17.7499 3.14 16.8799 2.27 15.8199 2.27H14.1199C13.7199 2.27 13.1499 2.06 12.8499 1.81L11.2699 0.460002C10.5799 -0.129998 9.44988 -0.129998 8.75988 0.460002L7.15988 1.81C6.85988 2.06 6.29988 2.27 5.89988 2.27H4.16988C3.10988 2.27 2.23988 3.14 2.23988 4.2V5.9C2.23988 6.29 2.03988 6.85 1.78988 7.15L0.439883 8.74C-0.140117 9.44 -0.140117 10.56 0.439883 11.24L1.78988 12.83C2.03988 13.12 2.23988 13.69 2.23988 14.08V15.79C2.23988 16.85 3.10988 17.72 4.16988 17.72H5.90988C6.29988 17.72 6.86988 17.93 7.16988 18.18L8.74988 19.53C9.43988 20.12 10.5699 20.12 11.2599 19.53L12.8399 18.18C13.1399 17.93 13.6999 17.72 14.0999 17.72H15.7999C16.8599 17.72 17.7299 16.85 17.7299 15.79V14.09C17.7299 13.69 17.9399 13.13 18.1899 12.83L19.5399 11.25C20.1499 10.57 20.1499 9.44 19.5599 8.74ZM9.24988 6.13C9.24988 5.72 9.58988 5.38 9.99988 5.38C10.4099 5.38 10.7499 5.72 10.7499 6.13V10.96C10.7499 11.37 10.4099 11.71 9.99988 11.71C9.58988 11.71 9.24988 11.37 9.24988 10.96V6.13ZM9.99988 14.87C9.44988 14.87 8.99988 14.42 8.99988 13.87C8.99988 13.32 9.43988 12.87 9.99988 12.87C10.5499 12.87 10.9999 13.32 10.9999 13.87C10.9999 14.42 10.5599 14.87 9.99988 14.87Z" fill="#FFC73A"/>
</svg>
